<svg width="75" height="46" viewBox="0 0 75 46" fill="none" xmlns="http://www.w3.org/2000/svg">
<path d="M1.48855 11.3252C1.56276 10.0637 1.30302 9.87815 2.6388 9.69262C4.56825 9.43289 6.01534 10.5089 7.49954 12.0302C18.3713 23.1246 5.01351 39.2652 1.97091 36.1855C0.672238 34.8869 1.19171 17.0765 1.48855 11.3252ZM6.34929 13.9226C5.90403 13.2918 4.23431 11.1397 3.82616 12.9207C2.93564 17.0394 3.49221 28.4306 3.64063 33.18C9.57742 32.475 11.7295 21.492 6.34929 13.9226ZM17.187 12.4755C14.8494 11.7705 15.1833 11.9931 15.1462 14.0339C15.1091 17.0023 15.1091 19.9707 15.1462 22.902C15.2204 23.6441 15.4431 25.3138 16.3707 25.5364C19.0794 26.1672 25.1275 14.776 17.187 12.4755ZM13.1055 10.3605C14.367 5.79661 31.7321 16.0376 18.3002 26.9093C21.4541 28.8759 22.6043 31.0279 23.0125 34.3674C23.198 36 22.493 36.9647 21.3428 35.7403C20.378 34.7013 21.8622 31.5845 18.0404 29.0985C17.5209 28.7645 15.9254 27.7998 15.2947 28.2822C14.0331 29.3211 16.4449 35.8516 14.367 36.0742C12.8086 36.2226 13.2539 33.885 13.1797 32.6606C12.9199 25.9817 12.8457 11.3623 13.1055 10.3605ZM31.2891 26.4269C32.3651 26.093 30.0646 13.5886 28.9886 13.5886C27.8754 13.5886 26.1315 23.6812 26.651 26.0188C27.5044 27.169 30.1017 26.5754 31.2891 26.4269ZM27.0962 12.3642C32.0312 0.119555 36.0756 37.7068 32.6249 36.0742C32.0312 35.7774 32.2538 31.2877 31.252 28.9501C26.9107 28.2822 26.2428 28.3193 25.9089 32.1782C25.3894 38.115 24.202 37.0018 24.2391 31.1022C24.2391 25.4993 24.9812 17.5589 27.0962 12.3642ZM35.0261 19.3028C35.6198 16.557 40.295 8.0229 43.82 9.95236C46.1205 11.2139 34.2098 13.5144 36.8814 26.0188C38.4027 33.0687 41 32.0669 43.7829 34.4045C46.1205 36.371 39.9982 37.5584 36.4732 30.3972C34.7293 26.8351 34.1727 23.1617 35.0261 19.3028ZM53.4469 21.0467C52.2966 13.1434 48.549 7.05817 45.7291 17.7073C41.5733 33.4027 54.7455 42.9757 53.4469 21.0467ZM43.1317 20.8612C45.3951 5.83371 52.4821 7.50343 54.8198 18.301C58.7529 36.8163 41.7217 45.3875 43.1317 20.8612ZM57.4596 12.6981C58.7583 10.7687 60.5764 9.32157 63.0253 9.61841C66.3648 10.0266 69.1848 13.5515 69.5558 15.5552C69.8155 16.9281 68.1458 18.0041 67.5521 15.9262C65.7711 9.84104 60.2054 11.1768 58.5356 14.6276C56.5691 18.7462 59.7972 20.4159 62.7656 21.7517C67.0327 23.6812 72.6726 26.5754 68.2571 33.1429C66.9585 35.0724 65.1403 36.5195 62.6914 36.2226C59.3891 35.8145 56.6433 32.4008 56.1609 30.3972C55.8641 29.0243 57.4596 27.503 58.2017 30.1374C61.2814 40.7123 74.2681 27.7256 63.5448 24.0522C57.9049 23.0504 53.7862 18.1525 57.4596 12.6981Z" fill="black"/>
</svg>
