<svg width="39" height="28" viewBox="0 0 39 28" fill="none" xmlns="http://www.w3.org/2000/svg">
<path d="M9.80933 28C7.18963 28 4.95137 27.0769 3.09455 25.2308C1.23774 23.3846 0.309326 21.1282 0.309326 18.4615C0.309326 16.1758 0.985841 14.1392 2.33887 12.3516C3.6919 10.5641 5.46236 9.42125 7.65024 8.92308C8.31236 6.54945 9.54304 4.55678 11.3423 2.94506C13.1415 1.33333 15.2214 0.351648 17.5821 0V14.1978L14.8184 11.4725L12.4002 13.9341L19.3093 20.967L26.2184 13.9341L23.8002 11.4725L21.0366 14.1978V0C24.0018 0.410256 26.4703 1.76557 28.4423 4.06593C30.4143 6.3663 31.4002 9.0696 31.4002 12.1758C33.3866 12.4103 35.0347 13.2821 36.3446 14.7912C37.6544 16.3004 38.3093 18.0659 38.3093 20.0879C38.3093 22.2857 37.5536 24.1538 36.0423 25.6923C34.5309 27.2308 32.6957 28 30.5366 28H9.80933Z" fill="#53EE00"/>
</svg>
