<svg width="39" height="34" viewBox="0 0 39 34" fill="none" xmlns="http://www.w3.org/2000/svg">
<path d="M19.6909 34L18.0912 32.5458C14.6459 29.3781 11.7959 26.6667 9.54122 24.4116C7.28691 22.1561 5.50742 20.167 4.20275 18.4444C2.89808 16.7218 1.98661 15.1631 1.46833 13.7684C0.950057 12.374 0.690918 10.9713 0.690918 9.56026C0.690918 6.85825 1.60309 4.58945 3.42745 2.75388C5.25145 0.917961 7.50594 0 10.1909 0C12.0476 0 13.7893 0.478013 15.4159 1.43404C17.0425 2.39006 18.4675 3.78055 19.6909 5.6055C20.9143 3.78055 22.3393 2.39006 23.9659 1.43404C25.5925 0.478013 27.3342 0 29.1909 0C31.8759 0 34.1304 0.917961 35.9544 2.75388C37.7787 4.58945 38.6909 6.85825 38.6909 9.56026C38.6909 10.9713 38.4318 12.374 37.9135 13.7684C37.3952 15.1631 36.4838 16.7218 35.1791 18.4444C33.8744 20.167 32.1016 22.1561 29.8607 24.4116C27.6197 26.6667 24.763 29.3781 21.2906 32.5458L19.6909 34Z" fill="#FE69B4"/>
</svg>
