<svg width="38" height="38" viewBox="0 0 38 38" fill="none" xmlns="http://www.w3.org/2000/svg">
<path d="M11.4 28.0941L19 20.4941L26.6 28.0941L28.0941 26.6L20.4941 19L28.0941 11.4L26.6 9.90586L19 17.5059L11.4 9.90586L9.90586 11.4L17.5059 19L9.90586 26.6L11.4 28.0941ZM19.0069 38C16.3796 38 13.9094 37.5014 11.5963 36.5043C9.28361 35.5071 7.27172 34.1539 5.56067 32.4446C3.84961 30.7353 2.49516 28.7252 1.49731 26.4142C0.499102 24.1036 0 21.6345 0 19.0069C0 16.3796 0.498574 13.9094 1.49572 11.5963C2.49287 9.28361 3.84609 7.27172 5.55539 5.56067C7.26468 3.84961 9.27481 2.49516 11.5858 1.49731C13.8964 0.499102 16.3655 0 18.9931 0C21.6204 0 24.0906 0.498575 26.4037 1.49572C28.7164 2.49287 30.7283 3.84609 32.4393 5.55539C34.1504 7.26469 35.5048 9.27482 36.5027 11.5858C37.5009 13.8964 38 16.3655 38 18.9931C38 21.6204 37.5014 24.0906 36.5043 26.4037C35.5071 28.7164 34.1539 30.7283 32.4446 32.4393C30.7353 34.1504 28.7252 35.5048 26.4142 36.5027C24.1036 37.5009 21.6345 38 19.0069 38Z" fill="#FFCB57"/>
</svg>
