<svg width="39" height="26" viewBox="0 0 39 26" fill="none" xmlns="http://www.w3.org/2000/svg">
<path d="M19.9313 20.2802C21.9894 20.2802 23.7373 19.5721 25.1751 18.1557C26.6129 16.7393 27.3318 15.0194 27.3318 12.9959C27.3318 10.9723 26.6116 9.25375 25.171 7.84006C23.7305 6.42637 21.9812 5.71952 19.9232 5.71952C17.8651 5.71952 16.1172 6.42771 14.6794 7.84408C13.2416 9.26044 12.5227 10.9804 12.5227 13.0039C12.5227 15.0274 13.2429 16.746 14.6835 18.1597C16.124 19.5734 17.8733 20.2802 19.9313 20.2802ZM19.9272 17.8213C18.5651 17.8213 17.4073 17.3526 16.4538 16.4151C15.5003 15.4776 15.0236 14.3392 15.0236 12.9999C15.0236 11.6606 15.5003 10.5222 16.4538 9.5847C17.4073 8.6472 18.5651 8.17845 19.9272 8.17845C21.2894 8.17845 22.4472 8.6472 23.4007 9.5847C24.3542 10.5222 24.8309 11.6606 24.8309 12.9999C24.8309 14.3392 24.3542 15.4776 23.4007 16.4151C22.4472 17.3526 21.2894 17.8213 19.9272 17.8213ZM19.9295 25.4999C15.7532 25.4999 11.9478 24.3671 8.51344 22.1017C5.07904 19.8365 2.55031 16.8026 0.927246 12.9999C2.55031 9.1972 5.07813 6.16327 8.51072 3.89809C11.9436 1.63262 15.7484 0.499878 19.925 0.499878C24.1013 0.499878 27.9066 1.63262 31.3411 3.89809C34.7755 6.16327 37.3042 9.1972 38.9272 12.9999C37.3042 16.8026 34.7764 19.8365 31.3438 22.1017C27.9109 24.3671 24.1061 25.4999 19.9295 25.4999Z" fill="#308CFF"/>
</svg>
