<svg width="23" height="25" viewBox="0 0 23 25" fill="none" xmlns="http://www.w3.org/2000/svg">
<path d="M6.21886 15.7832L6.21885 15.7832L6.21974 15.7847C6.78165 16.7356 7.53907 17.4931 8.48999 18.055C9.44408 18.6188 10.5059 18.8997 11.6711 18.8997C12.8364 18.8997 13.8982 18.6188 14.8523 18.055L14.8523 18.055L14.8549 18.0534C15.8044 17.4708 16.561 16.7035 17.1226 15.7532C17.686 14.7996 17.9673 13.7485 17.9673 12.6036C17.9673 11.4579 17.6751 10.4062 17.0903 9.45268C16.5287 8.50279 15.772 7.74605 14.8221 7.18446C13.8685 6.59965 12.8169 6.30745 11.6711 6.30745C10.5051 6.30745 9.44281 6.5993 8.48872 7.18444C7.53839 7.74628 6.7814 8.50345 6.21974 9.45395C5.65628 10.4075 5.37502 11.4587 5.37502 12.6036C5.37502 13.7485 5.65626 14.8095 6.21886 15.7832ZM13.279 9.85441L13.279 9.85448L13.2837 9.85723C13.7626 10.1366 14.1516 10.5153 14.4518 10.9957C14.7483 11.47 14.8976 12.0044 14.8976 12.6036C14.8976 13.18 14.7491 13.7153 14.451 14.2128C14.1502 14.6936 13.76 15.0836 13.279 15.3843C12.8047 15.6807 12.2703 15.83 11.6711 15.83C11.0947 15.83 10.5594 15.6816 10.0619 15.3834C9.58153 15.0829 9.19182 14.6932 8.89131 14.2128C8.59315 13.7153 8.44468 13.18 8.44468 12.6036C8.44468 12.0044 8.594 11.47 8.89046 10.9957C9.19069 10.5153 9.57965 10.1366 10.0586 9.85723L10.0586 9.85725L10.0605 9.85611C10.5584 9.55739 11.0942 9.40864 11.6711 9.40864C12.2703 9.40864 12.8047 9.55795 13.279 9.85441ZM11.0584 24.548C11.4573 24.7772 11.948 24.7772 12.347 24.548L21.6065 19.2288C22.008 18.9981 22.2556 18.5703 22.2556 18.1072V7.28911C22.2556 6.82602 22.008 6.39826 21.6065 6.16758L12.347 0.848297C11.948 0.619113 11.4573 0.619113 11.0584 0.848298L1.79891 6.16758C1.39735 6.39826 1.14977 6.82602 1.14977 7.28911V18.1072C1.14977 18.5703 1.39735 18.9981 1.79891 19.2288L11.0584 24.548ZM12.1767 20.5048C11.8841 20.6768 11.5213 20.6768 11.2287 20.5048L5.15389 16.9346C4.86798 16.7665 4.69241 16.4597 4.69241 16.1281V9.26586C4.69241 8.93531 4.86684 8.6293 5.15127 8.46089L11.2261 4.86398C11.52 4.68995 11.8854 4.68995 12.1793 4.86398L18.2541 8.46089C18.5385 8.6293 18.713 8.93531 18.713 9.26586V16.1281C18.713 16.4597 18.5374 16.7665 18.2515 16.9346L12.1767 20.5048Z" fill="white"/>
<path d="M6.21886 15.7832L6.21885 15.7832L6.21974 15.7847C6.78165 16.7356 7.53907 17.4931 8.48999 18.055C9.44408 18.6188 10.5059 18.8997 11.6711 18.8997C12.8364 18.8997 13.8982 18.6188 14.8523 18.055L14.8523 18.055L14.8549 18.0534C15.8044 17.4708 16.561 16.7035 17.1226 15.7532C17.686 14.7996 17.9673 13.7485 17.9673 12.6036C17.9673 11.4579 17.6751 10.4062 17.0903 9.45268C16.5287 8.50279 15.772 7.74605 14.8221 7.18446C13.8685 6.59965 12.8169 6.30745 11.6711 6.30745C10.5051 6.30745 9.44281 6.5993 8.48872 7.18444C7.53839 7.74628 6.7814 8.50345 6.21974 9.45395C5.65628 10.4075 5.37502 11.4587 5.37502 12.6036C5.37502 13.7485 5.65626 14.8095 6.21886 15.7832ZM13.279 9.85441L13.279 9.85448L13.2837 9.85723C13.7626 10.1366 14.1516 10.5153 14.4518 10.9957C14.7483 11.47 14.8976 12.0044 14.8976 12.6036C14.8976 13.18 14.7491 13.7153 14.451 14.2128C14.1502 14.6936 13.76 15.0836 13.279 15.3843C12.8047 15.6807 12.2703 15.83 11.6711 15.83C11.0947 15.83 10.5594 15.6816 10.0619 15.3834C9.58153 15.0829 9.19182 14.6932 8.89131 14.2128C8.59315 13.7153 8.44468 13.18 8.44468 12.6036C8.44468 12.0044 8.594 11.47 8.89046 10.9957C9.19069 10.5153 9.57965 10.1366 10.0586 9.85723L10.0586 9.85725L10.0605 9.85611C10.5584 9.55739 11.0942 9.40864 11.6711 9.40864C12.2703 9.40864 12.8047 9.55795 13.279 9.85441ZM11.0584 24.548C11.4573 24.7772 11.948 24.7772 12.347 24.548L21.6065 19.2288C22.008 18.9981 22.2556 18.5703 22.2556 18.1072V7.28911C22.2556 6.82602 22.008 6.39826 21.6065 6.16758L12.347 0.848297C11.948 0.619113 11.4573 0.619113 11.0584 0.848298L1.79891 6.16758C1.39735 6.39826 1.14977 6.82602 1.14977 7.28911V18.1072C1.14977 18.5703 1.39735 18.9981 1.79891 19.2288L11.0584 24.548ZM12.1767 20.5048C11.8841 20.6768 11.5213 20.6768 11.2287 20.5048L5.15389 16.9346C4.86798 16.7665 4.69241 16.4597 4.69241 16.1281V9.26586C4.69241 8.93531 4.86684 8.6293 5.15127 8.46089L11.2261 4.86398C11.52 4.68995 11.8854 4.68995 12.1793 4.86398L18.2541 8.46089C18.5385 8.6293 18.713 8.93531 18.713 9.26586V16.1281C18.713 16.4597 18.5374 16.7665 18.2515 16.9346L12.1767 20.5048Z" fill="url(#paint0_linear_439_283)"/>
<path d="M6.21886 15.7832L6.21885 15.7832L6.21974 15.7847C6.78165 16.7356 7.53907 17.4931 8.48999 18.055C9.44408 18.6188 10.5059 18.8997 11.6711 18.8997C12.8364 18.8997 13.8982 18.6188 14.8523 18.055L14.8523 18.055L14.8549 18.0534C15.8044 17.4708 16.561 16.7035 17.1226 15.7532C17.686 14.7996 17.9673 13.7485 17.9673 12.6036C17.9673 11.4579 17.6751 10.4062 17.0903 9.45268C16.5287 8.50279 15.772 7.74605 14.8221 7.18446C13.8685 6.59965 12.8169 6.30745 11.6711 6.30745C10.5051 6.30745 9.44281 6.5993 8.48872 7.18444C7.53839 7.74628 6.7814 8.50345 6.21974 9.45395C5.65628 10.4075 5.37502 11.4587 5.37502 12.6036C5.37502 13.7485 5.65626 14.8095 6.21886 15.7832ZM13.279 9.85441L13.279 9.85448L13.2837 9.85723C13.7626 10.1366 14.1516 10.5153 14.4518 10.9957C14.7483 11.47 14.8976 12.0044 14.8976 12.6036C14.8976 13.18 14.7491 13.7153 14.451 14.2128C14.1502 14.6936 13.76 15.0836 13.279 15.3843C12.8047 15.6807 12.2703 15.83 11.6711 15.83C11.0947 15.83 10.5594 15.6816 10.0619 15.3834C9.58153 15.0829 9.19182 14.6932 8.89131 14.2128C8.59315 13.7153 8.44468 13.18 8.44468 12.6036C8.44468 12.0044 8.594 11.47 8.89046 10.9957C9.19069 10.5153 9.57965 10.1366 10.0586 9.85723L10.0586 9.85725L10.0605 9.85611C10.5584 9.55739 11.0942 9.40864 11.6711 9.40864C12.2703 9.40864 12.8047 9.55795 13.279 9.85441ZM11.0584 24.548C11.4573 24.7772 11.948 24.7772 12.347 24.548L21.6065 19.2288C22.008 18.9981 22.2556 18.5703 22.2556 18.1072V7.28911C22.2556 6.82602 22.008 6.39826 21.6065 6.16758L12.347 0.848297C11.948 0.619113 11.4573 0.619113 11.0584 0.848298L1.79891 6.16758C1.39735 6.39826 1.14977 6.82602 1.14977 7.28911V18.1072C1.14977 18.5703 1.39735 18.9981 1.79891 19.2288L11.0584 24.548ZM12.1767 20.5048C11.8841 20.6768 11.5213 20.6768 11.2287 20.5048L5.15389 16.9346C4.86798 16.7665 4.69241 16.4597 4.69241 16.1281V9.26586C4.69241 8.93531 4.86684 8.6293 5.15127 8.46089L11.2261 4.86398C11.52 4.68995 11.8854 4.68995 12.1793 4.86398L18.2541 8.46089C18.5385 8.6293 18.713 8.93531 18.713 9.26586V16.1281C18.713 16.4597 18.5374 16.7665 18.2515 16.9346L12.1767 20.5048Z" stroke="#B95300" stroke-width="0.357929"/>
<defs>
<linearGradient id="paint0_linear_439_283" x1="-0.183552" y1="-4.98016" x2="24.4295" y2="-4.29052" gradientUnits="userSpaceOnUse">
<stop stop-color="#FFF6BC"/>
<stop offset="0.51" stop-color="#F1CE0F"/>
<stop offset="1" stop-color="#ED8205"/>
</linearGradient>
</defs>
</svg>
